# xmcd CD database file
#
# Track frame offsets:
#	150
#	103275
#	194550
#	285150
#
# Disc length: 4264 seconds
#
# Revision: 0
# Processed by: cddbd v1.5.2PL0 Copyright (c) Steve Scherf et al.
# Submitted via: CDex 1.51
#
DISCID=3510a604
DTITLE=Chick Corea - John McLauglin - Five Peace Band CD2
DYEAR=2009
DGENRE=Jazz
TTITLE0=Dr. Jackle
TTITLE1=Senor C.S.
TTITLE2=In A Silent Way - It's About That Time
TTITLE3=Someday My Prince Will Come
EXTD=YEAR: 2009
EXTT0=
EXTT1=
EXTT2=
EXTT3=
PLAYORDER=
